<svg xmlns="http://www.w3.org/2000/svg" xmlns:xlink="http://www.w3.org/1999/xlink" width="100" zoomAndPan="magnify" viewBox="0 0 75 74.999997" height="100" preserveAspectRatio="xMidYMid meet" version="1.2"><defs><clipPath id="9090786717"><path d="M 7.058594 0.539062 L 67.808594 0.539062 L 67.808594 74.789062 L 7.058594 74.789062 Z M 7.058594 0.539062 "/></clipPath></defs><g id="0ad68be516"><g clip-rule="nonzero" clip-path="url(#9090786717)"><path style=" stroke:none;fill-rule:evenodd;fill:#000000;fill-opacity:1;" d="M 66.800781 57.148438 L 41.5625 3.203125 C 41.246094 2.527344 40.777344 1.980469 40.15625 1.566406 C 39.539062 1.148438 38.859375 0.921875 38.113281 0.882812 C 37.371094 0.832031 36.667969 0.980469 36.003906 1.328125 C 35.34375 1.671875 34.816406 2.167969 34.429688 2.808594 L 7.058594 47.429688 C 6.847656 47.769531 6.691406 48.128906 6.585938 48.507812 C 6.480469 48.890625 6.429688 49.28125 6.433594 49.675781 C 6.4375 50.074219 6.496094 50.460938 6.609375 50.84375 C 6.722656 51.222656 6.886719 51.578125 7.101562 51.910156 L 20.484375 72.769531 C 20.738281 73.160156 21.046875 73.503906 21.410156 73.792969 C 21.773438 74.085938 22.171875 74.3125 22.605469 74.472656 C 23.042969 74.632812 23.492188 74.722656 23.957031 74.738281 C 24.417969 74.75 24.875 74.691406 25.316406 74.558594 L 64.152344 62.996094 C 64.746094 62.824219 65.273438 62.53125 65.738281 62.128906 C 66.207031 61.722656 66.566406 61.238281 66.824219 60.671875 C 67.078125 60.113281 67.203125 59.523438 67.199219 58.90625 C 67.195312 58.292969 67.0625 57.703125 66.800781 57.148438 Z M 61.148438 59.460938 L 28.195312 69.269531 C 27.191406 69.570312 26.226562 68.695312 26.433594 67.671875 L 38.207031 10.929688 C 38.429688 9.867188 39.886719 9.699219 40.347656 10.683594 L 62.140625 57.269531 C 62.238281 57.480469 62.289062 57.699219 62.289062 57.933594 C 62.289062 58.164062 62.242188 58.386719 62.148438 58.597656 C 62.050781 58.808594 61.917969 58.988281 61.742188 59.140625 C 61.566406 59.289062 61.371094 59.398438 61.148438 59.460938 Z M 61.148438 59.460938 "/></g></g></svg>