<svg xmlns="http://www.w3.org/2000/svg" xmlns:xlink="http://www.w3.org/1999/xlink" width="100" zoomAndPan="magnify" viewBox="0 0 75 74.999997" height="100" preserveAspectRatio="xMidYMid meet" version="1.2"><defs><clipPath id="7c0b2e8125"><path d="M 0 0.203125 L 75 0.203125 L 75 75 L 0 75 Z M 0 0.203125 "/></clipPath></defs><g id="7fbdc90f81"><path style=" stroke:none;fill-rule:evenodd;fill:#ec5990;fill-opacity:1;" d="M 58.363281 3.359375 C 62.082031 3.359375 65.453125 4.878906 67.894531 7.332031 C 70.332031 9.78125 71.839844 13.171875 71.839844 16.914062 L 71.839844 58.496094 C 71.839844 62.238281 70.332031 65.625 67.894531 68.078125 C 66.628906 69.351562 65.171875 70.332031 63.519531 71.019531 C 61.871094 71.707031 60.148438 72.050781 58.363281 72.046875 L 16.636719 72.046875 C 12.917969 72.046875 9.546875 70.53125 7.105469 68.078125 C 4.667969 65.625 3.160156 62.238281 3.160156 58.496094 L 3.160156 16.914062 C 3.160156 13.171875 4.667969 9.78125 7.105469 7.328125 C 8.371094 6.058594 9.828125 5.078125 11.480469 4.390625 C 13.128906 3.699219 14.851562 3.359375 16.636719 3.359375 Z M 58.363281 3.359375 "/><g clip-rule="nonzero" clip-path="url(#7c0b2e8125)"><path style="fill:none;stroke-width:17;stroke-linecap:butt;stroke-linejoin:miter;stroke:#ffffff;stroke-opacity:1;stroke-miterlimit:4;" d="M 157.999939 8.497036 C 168.070701 8.497036 177.199974 12.58964 183.811556 19.196724 C 190.41256 25.793287 194.495874 34.925371 194.495874 45.00433 L 194.495874 156.998608 C 194.495874 167.077567 190.41256 176.19913 183.811556 182.806214 C 180.384112 186.236006 176.43832 188.876735 171.963601 190.728402 C 167.49946 192.580069 162.834328 193.505902 157.999939 193.495381 L 45.000061 193.495381 C 34.929299 193.495381 25.800026 189.413298 19.188444 182.806214 C 12.58744 176.19913 8.504127 167.077567 8.504127 156.998608 L 8.504127 45.00433 C 8.504127 34.925371 12.58744 25.793287 19.188444 19.186203 C 22.615888 15.766932 26.56168 13.126203 31.036399 11.274536 C 35.50054 9.412349 40.165672 8.497036 45.000061 8.497036 Z M 157.999939 8.497036 " transform="matrix(0.369262,0,0,0.371287,0.0199053,0.204535)"/></g><path style=" stroke:none;fill-rule:evenodd;fill:#ffffff;fill-opacity:1;" d="M 49.273438 19.363281 L 41.566406 19.363281 C 41.003906 17.59375 39.359375 16.394531 37.503906 16.394531 C 35.644531 16.394531 34.003906 17.59375 33.4375 19.363281 L 25.726562 19.363281 C 22.691406 19.363281 20.230469 21.828125 20.230469 24.863281 L 20.230469 53.519531 C 20.230469 56.554688 22.691406 59.019531 25.726562 59.019531 L 49.273438 59.019531 C 52.308594 59.019531 54.769531 56.554688 54.769531 53.519531 L 54.769531 24.863281 C 54.769531 21.828125 52.308594 19.363281 49.273438 19.363281 Z M 33.820312 20.363281 C 33.941406 20.367188 34.046875 20.332031 34.144531 20.257812 C 34.238281 20.183594 34.296875 20.085938 34.320312 19.96875 C 34.648438 18.46875 35.976562 17.394531 37.515625 17.394531 C 39.050781 17.394531 40.382812 18.464844 40.707031 19.96875 C 40.734375 20.085938 40.792969 20.183594 40.886719 20.257812 C 40.980469 20.332031 41.089844 20.367188 41.207031 20.363281 L 43.898438 20.363281 L 43.898438 23.640625 C 43.898438 24.46875 43.226562 25.140625 42.398438 25.140625 L 32.628906 25.140625 C 31.800781 25.140625 31.128906 24.46875 31.128906 23.640625 L 31.128906 20.363281 Z M 53.773438 53.519531 C 53.773438 56.003906 51.757812 58.019531 49.273438 58.019531 L 25.726562 58.019531 C 23.242188 58.019531 21.230469 56.003906 21.230469 53.519531 L 21.230469 24.863281 C 21.230469 22.378906 23.242188 20.363281 25.726562 20.363281 L 30.128906 20.363281 L 30.128906 23.640625 C 30.128906 25.019531 31.246094 26.140625 32.628906 26.140625 L 42.371094 26.140625 C 43.753906 26.140625 44.871094 25.019531 44.871094 23.640625 L 44.871094 20.363281 L 49.273438 20.363281 C 51.757812 20.363281 53.773438 22.378906 53.773438 24.863281 Z M 48.292969 35.703125 L 39.5 35.703125 C 39.359375 35.703125 39.242188 35.753906 39.144531 35.851562 C 39.046875 35.949219 39 36.066406 39 36.203125 C 39 36.34375 39.046875 36.460938 39.144531 36.558594 C 39.242188 36.65625 39.359375 36.703125 39.5 36.703125 L 48.292969 36.703125 C 48.433594 36.703125 48.550781 36.65625 48.648438 36.558594 C 48.746094 36.460938 48.792969 36.34375 48.792969 36.203125 C 48.792969 36.066406 48.746094 35.949219 48.648438 35.851562 C 48.550781 35.753906 48.433594 35.703125 48.292969 35.703125 Z M 35.300781 35.703125 L 26.507812 35.703125 C 26.367188 35.703125 26.25 35.753906 26.152344 35.851562 C 26.054688 35.949219 26.007812 36.066406 26.007812 36.203125 C 26.007812 36.34375 26.054688 36.460938 26.152344 36.558594 C 26.25 36.65625 26.367188 36.703125 26.507812 36.703125 L 35.300781 36.703125 C 35.4375 36.703125 35.558594 36.65625 35.652344 36.558594 C 35.75 36.460938 35.800781 36.34375 35.800781 36.203125 C 35.800781 36.066406 35.75 35.949219 35.652344 35.851562 C 35.558594 35.753906 35.4375 35.703125 35.300781 35.703125 Z M 48.320312 47.804688 L 39.5 47.804688 C 39.363281 47.804688 39.242188 47.851562 39.144531 47.949219 C 39.046875 48.046875 39 48.164062 39 48.304688 C 39 48.441406 39.046875 48.5625 39.144531 48.660156 C 39.242188 48.757812 39.363281 48.804688 39.5 48.804688 L 48.320312 48.804688 C 48.457031 48.804688 48.574219 48.757812 48.671875 48.660156 C 48.769531 48.5625 48.820312 48.441406 48.820312 48.304688 C 48.820312 48.164062 48.769531 48.046875 48.671875 47.949219 C 48.574219 47.851562 48.457031 47.804688 48.320312 47.804688 Z M 35.324219 47.804688 L 26.507812 47.804688 C 26.367188 47.804688 26.25 47.851562 26.152344 47.949219 C 26.054688 48.046875 26.007812 48.164062 26.007812 48.304688 C 26.007812 48.441406 26.054688 48.5625 26.152344 48.660156 C 26.25 48.757812 26.367188 48.804688 26.507812 48.804688 L 35.324219 48.804688 C 35.464844 48.804688 35.582031 48.757812 35.679688 48.660156 C 35.777344 48.5625 35.824219 48.441406 35.824219 48.304688 C 35.824219 48.164062 35.777344 48.046875 35.679688 47.949219 C 35.582031 47.851562 35.464844 47.804688 35.324219 47.804688 Z M 35.324219 47.804688 "/></g></svg>