<svg xmlns="http://www.w3.org/2000/svg" xmlns:xlink="http://www.w3.org/1999/xlink" width="100" zoomAndPan="magnify" viewBox="0 0 75 74.999997" height="100" preserveAspectRatio="xMidYMid meet" version="1.2"><g id="1aee9ccafe"><path style=" stroke:none;fill-rule:nonzero;fill:#010101;fill-opacity:1;" d="M 28.257812 2.164062 C 37.710938 -0.261719 48.15625 1.152344 56.492188 6.296875 C 66.992188 12.574219 73.847656 24.453125 74.023438 36.679688 C 74.40625 49.027344 67.972656 61.273438 57.628906 67.988281 C 46.117188 75.730469 30.191406 76.027344 18.4375 68.667969 C 6.453125 61.515625 -0.539062 47.09375 1.257812 33.242188 C 2.703125 18.609375 14.007812 5.703125 28.257812 2.164062 Z M 28.257812 2.164062 "/><path style=" stroke:none;fill-rule:nonzero;fill:#ffffff;fill-opacity:1;" d="M 26.808594 8.144531 C 44.667969 0.992188 66.574219 14.199219 68.425781 33.347656 C 71.300781 50.582031 57 68.09375 39.539062 68.597656 C 22.9375 70.257812 6.890625 56.179688 6.417969 39.507812 C 5.179688 26.007812 14.074219 12.609375 26.808594 8.144531 Z M 26.808594 8.144531 "/><path style=" stroke:none;fill-rule:nonzero;fill:#010101;fill-opacity:1;" d="M 28.605469 35.652344 C 36.609375 29.109375 44.441406 22.34375 52.621094 15.992188 C 48.332031 22.585938 43.917969 29.09375 39.628906 35.6875 C 35.949219 35.703125 32.265625 35.703125 28.605469 35.652344 Z M 35.371094 39.296875 C 39.070312 39.296875 42.75 39.296875 46.429688 39.347656 C 38.371094 45.855469 30.574219 52.675781 22.378906 59.007812 C 26.667969 52.414062 31.082031 45.890625 35.371094 39.296875 Z M 35.371094 39.296875 "/></g></svg>